<?xml version="1.0" encoding="utf-8"?>
<!-- Generator: Adobe Illustrator 24.1.0, SVG Export Plug-In . SVG Version: 6.00 Build 0)  -->
<svg version="1.1" id="Layer_1" xmlns="http://www.w3.org/2000/svg" xmlns:xlink="http://www.w3.org/1999/xlink" x="0px" y="0px"
	 viewBox="0 0 1190.55 841.89" style="enable-background:new 0 0 1190.55 841.89;" xml:space="preserve">
<g>
	<path d="M256.67,234.02c0,1.68-0.48,3.86-1.92,5.54l-53.23,82.61v60.94c0,4.82-4.33,8.67-8.91,8.67c-5.06,0-8.91-3.86-8.91-8.67
		v-60.94l-53.71-81.89c-1.21-1.69-1.93-4.1-1.93-5.78c0-5.06,3.62-8.67,8.67-8.67c3.13,0,5.78,1.45,7.7,4.58
		c16.14,25.05,32.04,50.1,47.93,75.15l47.45-74.18c2.16-3.37,4.82-5.54,8.91-5.54C252.82,225.83,256.67,229.2,256.67,234.02z"/>
	<path d="M252.84,337.35c0-31.55,22.88-55.88,54.43-55.88c32.04,0,54.92,24.33,54.92,55.88s-22.88,55.88-54.92,55.88
		C275.72,393.23,252.84,368.9,252.84,337.35z M345.33,337.35c0-24.81-17.1-40.23-38.06-40.23c-20.71,0-37.57,15.41-37.57,40.23
		c0,24.57,16.86,40.46,37.57,40.46C328.23,377.81,345.33,361.92,345.33,337.35z"/>
	<path d="M956.98,234.02c0,1.68-0.48,3.86-1.93,5.54l-53.23,82.61v60.94c0,4.82-4.33,8.67-8.92,8.67c-5.06,0-8.91-3.86-8.91-8.67
		v-60.94l-53.71-81.89c-1.21-1.69-1.93-4.1-1.93-5.78c0-5.06,3.61-8.67,8.67-8.67c3.13,0,5.78,1.45,7.71,4.58
		c16.14,25.05,32.04,50.1,47.93,75.15l47.45-74.18c2.17-3.37,4.82-5.54,8.92-5.54C953.13,225.83,956.98,229.2,956.98,234.02z"/>
	<path d="M953.15,337.35c0-31.55,22.88-55.88,54.43-55.88c32.04,0,54.91,24.33,54.91,55.88s-22.88,55.88-54.91,55.88
		C976.03,393.23,953.15,368.9,953.15,337.35z M1045.64,337.35c0-24.81-17.1-40.23-38.06-40.23c-20.71,0-37.58,15.41-37.58,40.23
		c0,24.57,16.86,40.46,37.58,40.46C1028.54,377.81,1045.64,361.92,1045.64,337.35z"/>
	<path d="M297.61,461.67v144.27c0,4.82-3.85,8.67-8.67,8.67c-4.82,0-8.91-3.86-8.91-8.67V477.08l-46.24,80.21
		c-2.65,4.58-6.26,8.43-12.04,8.43s-9.15-3.37-12.04-8.19l-46.97-80.93v129.34c0,4.82-3.86,8.67-8.67,8.67s-8.43-3.86-8.43-8.67
		V462.39c0-8.19,5.78-13.73,12.29-13.73c5.78,0,10.12,2.41,13.73,8.67l50.58,90.08l49.86-90.08c3.38-6.02,7.23-8.67,12.77-8.67
		C291.84,448.66,297.61,453.96,297.61,461.67z"/>
	<path d="M413.51,534.89v71.29c0,4.82-3.62,8.43-8.19,8.43c-4.33,0-8.19-3.61-8.19-8.43v-5.06c-12.53,11.08-24.09,14.93-35.41,14.93
		c-18.55,0-31.79-12.52-31.79-29.39c0-14.21,8.43-24.08,26.74-29.62c12.04-3.61,27.45-5.54,40.46-6.98v-11.8
		c0-12.28-8.19-18.31-21.2-18.31c-8.43,0-16.38,2.17-22.88,5.54c-2.65,1.45-5.06,2.89-7.46,2.89c-4.33,0-7.47-3.13-7.47-7.23
		c0-2.65,1.45-5.06,5.06-7.47c7.23-4.82,21.44-9.39,33.48-9.39C399.77,504.3,413.51,517.07,413.51,534.89z M397.13,585.47v-22.16
		c-11.8,1.68-24.81,3.85-32.76,6.02c-12.76,3.86-17.82,8.91-17.82,16.62c0,8.67,7.46,14.93,18.3,14.93
		C374.24,600.88,387.25,595.83,397.13,585.47z"/>
	<path d="M442.67,560.42c0-32.52,23.36-56.12,54.67-56.12c11.32,0,21.68,3.61,28.9,8.43c3.62,2.41,4.33,5.3,4.33,7.23
		c0,4.1-2.65,7.47-7.22,7.47c-2.41,0-4.33-0.72-6.99-2.17c-4.82-2.41-11.32-5.3-18.78-5.3c-21.68,0-38.06,16.38-38.06,40.71
		c0,23.84,15.9,39.74,37.33,39.74c9.39,0,14.93-2.17,22.4-6.5c2.16-1.21,3.61-2.17,6.02-2.17c4.1,0,7.23,2.89,7.23,6.74
		c0,3.37-1.69,5.3-4.33,7.47c-8.43,6.5-20.47,10.12-31.31,10.12C464.1,616.06,442.67,591.01,442.67,560.42z"/>
	<path d="M651.74,542.36v63.83c0,4.58-3.85,8.43-8.19,8.43c-4.58,0-8.19-3.86-8.19-8.43v-61.42c0-16.86-11.8-24.81-26.01-24.81
		c-13,0-26.01,7.47-33.24,20.71v65.51c0,4.58-3.61,8.43-7.95,8.43c-4.58,0-8.43-3.86-8.43-8.43V450.35c0-4.58,3.85-8.43,8.43-8.43
		c4.34,0,7.95,3.85,7.95,8.43v70.81c9.87-11.56,21.92-16.86,36.13-16.86C634.41,504.3,651.74,519.48,651.74,542.36z"/>
	<path d="M685,466c0-6.26,5.06-11.32,11.32-11.32c6.26,0,11.32,5.06,11.32,11.32c0,6.26-5.06,11.32-11.32,11.32
		C690.06,477.32,685,472.27,685,466z M688.14,606.18v-91.77c0-4.58,3.85-8.19,8.19-8.19c4.58,0,8.19,3.61,8.19,8.19v91.77
		c0,4.58-3.61,8.43-8.19,8.43C691.99,614.61,688.14,610.76,688.14,606.18z"/>
	<path d="M828.08,342.65h-426c-4.58,0-8.19-3.85-8.19-8.19c0-4.58,3.61-8.19,8.19-8.19h426c4.58,0,8.43,3.61,8.43,8.19
		C836.51,338.79,832.66,342.65,828.08,342.65z"/>
	<path d="M834.11,542.36v63.83c0,4.58-3.86,8.43-8.19,8.43c-4.58,0-8.19-3.86-8.19-8.43v-61.42c0-16.86-11.8-24.81-26.01-24.81
		c-13.01,0-26.01,7.47-33.24,20.71v65.51c0,4.58-3.61,8.43-8.19,8.43c-4.33,0-8.19-3.86-8.19-8.43v-91.77
		c0-4.34,3.85-8.19,8.19-8.19c4.58,0,8.19,3.85,8.19,8.19v6.74c9.87-11.56,21.92-16.86,36.13-16.86
		C816.76,504.3,834.11,519.48,834.11,542.36z"/>
	<path d="M961.29,551.51c0,2.41-0.24,4.58-2.16,7.23c-2.17,2.41-5.06,2.89-10.12,2.89H879.4c0.96,26.25,20.96,39.02,40.7,39.02
		c10.12,0,17.83-3.13,22.64-5.3c2.41-1.2,4.33-2.17,6.5-2.17c3.85,0,7.46,2.89,7.46,7.23c0,2.41-1.2,5.06-5.06,7.23
		c-7.95,5.06-19.03,8.43-31.79,8.43c-32.75,0-56.6-22.64-56.6-56.36c0-31.07,21.67-55.4,51.06-55.4
		C942.75,504.3,961.29,525.98,961.29,551.51z M945.16,548.38c0-15.41-12.77-28.9-30.59-28.9c-17.59,0-30.11,11.8-33.96,28.9H945.16z
		"/>
	<path d="M987.57,607.15c-3.38-2.17-4.82-4.34-4.82-7.71c0-4.82,3.85-7.47,7.7-7.47c2.65,0,4.82,1.21,7.95,2.89
		c4.82,2.65,12.76,5.78,21.91,5.78c14.93,0,22.16-6.26,22.16-14.69c0-9.15-7.47-13.25-24.33-19.27
		c-13.97-5.06-33.48-12.28-33.48-32.76c0-16.38,13.01-29.62,36.37-29.62c9.63,0,19.99,2.65,26.25,5.54
		c3.37,1.69,7.23,3.86,7.23,8.43s-3.38,7.95-7.47,7.95c-2.41,0-4.82-1.44-8.91-2.89c-4.33-1.68-10.12-3.61-17.58-3.61
		c-13.49,0-19.51,6.02-19.51,13.97c0,8.91,7.95,12.52,25.77,19.27c17.59,6.74,32.04,13.73,32.04,31.79
		c0,17.58-13.97,31.31-37.33,31.31C1004.18,616.06,991.9,610.04,987.57,607.15z"/>
</g>
</svg>
