<?xml version="1.0" encoding="utf-8"?>
<!-- Generator: Adobe Illustrator 25.0.1, SVG Export Plug-In . SVG Version: 6.00 Build 0)  -->
<svg version="1.1" id="Layer_1" xmlns="http://www.w3.org/2000/svg" xmlns:xlink="http://www.w3.org/1999/xlink" x="0px" y="0px"
	 viewBox="0 0 262.5 195.7" style="enable-background:new 0 0 262.5 195.7;" xml:space="preserve">
<path d="M142.8,22.4c0,1.7-0.5,3.9-1.9,5.5l-53.2,82.6v60.9c0,4.8-4.3,8.7-8.9,8.7c-5.1,0-8.9-3.9-8.9-8.7v-60.9L16.1,28.6
	c-1.2-1.7-1.9-4.1-1.9-5.8c0-5.1,3.6-8.7,8.7-8.7c3.1,0,5.8,1.4,7.7,4.6c16.1,25.1,32,50.1,47.9,75.2l47.4-74.2
	c2.2-3.4,4.8-5.5,8.9-5.5C138.9,14.2,142.8,17.5,142.8,22.4z"/>
<path d="M139,125.7c0-31.5,22.9-55.9,54.4-55.9c32,0,54.9,24.3,54.9,55.9s-22.9,55.9-54.9,55.9C161.8,181.6,139,157.2,139,125.7z
	 M231.4,125.7c0-24.8-17.1-40.2-38.1-40.2c-20.7,0-37.6,15.4-37.6,40.2c0,24.6,16.9,40.5,37.6,40.5
	C214.3,166.2,231.4,150.3,231.4,125.7z"/>
</svg>
